<svg width="130" height="41" viewBox="0 0 130 41" fill="none" xmlns="http://www.w3.org/2000/svg">
<g clip-path="url(#clip0_1_273)">
<rect x="-125" y="-11" width="1440" height="70" fill="white"/>
<path d="M49.273 26.0214C53.2947 26.0214 56.5447 23.1859 56.5447 19.697C56.5447 16.2023 53.2886 13.3726 49.2738 13.3726C45.2581 13.3726 42.0021 16.2023 42.0021 19.697C41.9953 23.1859 45.2581 26.0214 49.273 26.0214V26.0214ZM33.5173 30.4976H30.6377C29.9824 30.4976 29.4435 30.0355 29.4435 29.4602V9.85963C29.4435 9.29605 29.9756 8.82812 30.6377 8.82812H33.5173C34.1726 8.82812 34.7039 9.29019 34.7039 9.85963V17.4088H37.0591C38.285 12.3021 43.2794 8.82943 49.273 8.82943C56.0519 8.82943 61.7727 13.8015 61.7727 19.6977C61.7727 25.588 56.0511 30.5594 49.273 30.5594C43.2794 30.5594 38.285 27.0874 37.0591 21.9859H34.7047V29.4609C34.7047 30.0303 34.1726 30.4983 33.5181 30.4983L33.5173 30.4976Z" fill="#EE2E3B"/>
<path fill-rule="evenodd" clip-rule="evenodd" d="M53.3983 0.824624C49.3509 3.78964 49.403 10.1141 52.9833 7.71848C55.4034 5.94832 56.123 3.7955 55.1502 1.23658C54.8328 0.497275 54.2417 0.356704 53.399 0.824624H53.3983Z" fill="#00AAAD"/>
<path fill-rule="evenodd" clip-rule="evenodd" d="M59.2823 3.40625C58.0367 3.40625 56.9143 3.60344 55.9159 3.9809C55.7534 5.55973 54.7807 6.95177 52.9773 8.14663C56.3051 8.56379 58.7177 7.72361 60.2165 5.63261C61.1696 4.16703 60.8589 3.42317 59.2823 3.40625V3.40625Z" fill="#00AAAD"/>
<path d="M23.1778 1.28662H26.0575C26.3721 1.28783 26.6732 1.39654 26.8947 1.58887C27.1162 1.7812 27.24 2.0414 27.2388 2.31227V29.4712C27.2402 29.7421 27.1166 30.0023 26.8953 30.1948C26.6739 30.3872 26.3728 30.4961 26.0582 30.4975H23.1786C23.0227 30.4969 22.8686 30.4699 22.7249 30.418C22.5812 30.3661 22.4507 30.2903 22.341 30.195C22.2314 30.0997 22.1445 29.9867 22.0855 29.8626C22.0265 29.7384 21.9965 29.6054 21.9972 29.4712V2.31227C21.9972 1.74283 22.5225 1.28662 23.1778 1.28662V1.28662ZM87.3298 8.8573C87.8294 8.8573 88.2579 9.12738 88.4265 9.5107L94.9189 21.743L101.393 9.45473C101.594 9.07727 102.015 8.8573 102.463 8.8573H105.564C106.472 8.8573 107.023 9.70789 106.582 10.3789L96.3141 29.8942C96.1131 30.2717 95.6914 30.4975 95.2439 30.4975H94.6861C94.4481 30.4961 94.2161 30.433 94.0205 30.3163C93.8248 30.1996 93.6746 30.0348 93.5894 29.8435L83.2174 10.306C82.8607 9.62915 83.4449 8.85145 84.2876 8.8573H87.3298V8.8573ZM64.121 1.28662H67.0007C67.3152 1.28783 67.6164 1.39654 67.8379 1.58887C68.0594 1.7812 68.1832 2.0414 68.182 2.31227V15.565L76.7635 9.10526C76.9903 8.93605 77.2631 8.8573 77.5292 8.8573H81.7322C82.8675 8.8573 83.3278 10.1198 82.4329 10.6945L71.101 19.2231L83.2431 28.7156C84.0541 29.3469 83.516 30.4975 82.4586 30.4975H78.3462C78.0219 30.4975 77.7302 30.3843 77.5155 30.1981L68.1812 22.8988V29.4718C68.1824 29.7425 68.0589 30.0025 67.8377 30.1948C67.6165 30.3871 67.3157 30.4959 67.0014 30.4975H64.1218C63.9659 30.4969 63.8118 30.4699 63.6681 30.418C63.5244 30.3661 63.3939 30.2903 63.2842 30.195C63.1745 30.0997 63.0877 29.9867 63.0287 29.8626C62.9697 29.7384 62.9397 29.6054 62.9404 29.4712V2.31227C62.9404 1.74283 63.4657 1.28662 64.121 1.28662V1.28662ZM117.11 13.1408C112.945 13.1408 109.683 16.0779 109.683 19.7021C109.683 23.2145 112.919 26.309 117.084 26.309C121.3 26.309 124.498 23.4911 124.498 19.7698C124.505 16.0609 121.437 13.1408 117.11 13.1408ZM129.356 9.83219V29.5168C129.356 30.0517 128.857 30.4916 128.234 30.4916H125.464C125.166 30.4894 124.88 30.3857 124.67 30.2031C124.46 30.0205 124.342 29.7739 124.342 29.5168V28.1859C122.163 29.7309 119.601 30.4916 116.811 30.4916C109.89 30.4916 104.636 25.5144 104.636 19.6182C104.636 13.6543 110.072 8.85145 116.896 8.85145C119.717 8.85145 122.247 9.60637 124.349 11.2021V9.82634C124.349 9.28553 124.854 8.85145 125.471 8.85145H128.24C128.539 8.85606 128.823 8.9615 129.032 9.14501C129.24 9.32851 129.357 9.57534 129.356 9.83219V9.83219ZM1.82381 1.28662H4.71102C5.02547 1.288 5.32643 1.39679 5.54779 1.5891C5.76915 1.78141 5.89281 2.04151 5.8916 2.31227V15.565L14.4731 9.10526C14.6999 8.93605 14.9719 8.8573 15.238 8.8573H19.4418C20.5771 8.8573 21.0374 10.1198 20.1425 10.6945L8.80375 19.2231L20.9467 28.7156C21.7508 29.3469 21.2187 30.4975 20.1614 30.4975H16.0497C15.7247 30.4975 15.433 30.3843 15.2183 30.1981L5.8848 22.8995V29.4725C5.886 29.7431 5.76245 30.0031 5.54125 30.1954C5.32006 30.3877 5.01929 30.4966 4.70497 30.4981H1.82532C1.6693 30.4977 1.51491 30.4708 1.37098 30.4189C1.22705 30.3671 1.09642 30.2913 0.986548 30.1959C0.87668 30.1005 0.789738 29.9874 0.730697 29.8631C0.671656 29.7387 0.641676 29.6055 0.642471 29.4712V2.31227C0.642471 1.74283 1.16852 1.28662 1.82305 1.28662H1.82381Z" fill="#2C2F31"/>
</g>
<defs>
<clipPath id="clip0_1_273">
<rect width="130" height="41" fill="white"/>
</clipPath>
</defs>
</svg>
