<?xml version="1.0" encoding="utf-8"?>
<svg width="60" height="60" viewBox="0 0 60 60" xmlns="http://www.w3.org/2000/svg">
  <defs>
    <path id="htn8a" d="M721 4350c16.569 0 30 13.43 30 30 0 16.568-13.431 30-30 30-16.569 0-30-13.432-30-30 0-16.57 13.431-30 30-30z"/>
    <path id="htn8b" d="M719 4370h4v20h-4z"/>
    <path id="htn8c" d="M731 4378v4h-20v-4z"/>
  </defs>
  <g>
    <g transform="translate(-691 -4350)">
      <path d="M721 4350c16.569 0 30 13.43 30 30 0 16.568-13.431 30-30 30-16.569 0-30-13.432-30-30 0-16.57 13.431-30 30-30z" transform="matrix(1, 0, 0, 1, 0, 0)" style="fill: rgb(238, 46, 59);"/>
    </g>
    <g transform="translate(-691 -4350)">
      <path d="M719 4370h4v20h-4z" transform="matrix(1, 0, 0, 1, 0, 0)" fill="#fff"/>
    </g>
    <g transform="translate(-691 -4350)">
      <path d="M731 4378v4h-20v-4z" transform="matrix(1, 0, 0, 1, 0, 0)" fill="#fff"/>
    </g>
  </g>
</svg>