<svg width="38" height="32" viewBox="0 0 38 32" fill="none" xmlns="http://www.w3.org/2000/svg">
<path d="M1.897 28V20.98H3.184L5.6995 25.829L8.2215 20.98H9.502V28H8.007V24.1325L6.0115 28H5.394L3.3985 24.1325V28H1.897ZM14.5087 28.195C13.7981 28.195 13.1741 28.0412 12.6367 27.7335C12.0994 27.4258 11.6791 26.999 11.3757 26.453C11.0767 25.907 10.9272 25.2787 10.9272 24.568C10.9272 23.801 11.0746 23.1358 11.3692 22.5725C11.6639 22.0048 12.0734 21.565 12.5977 21.253C13.1221 20.941 13.7287 20.785 14.4177 20.785C15.1457 20.785 15.7632 20.9562 16.2702 21.2985C16.7816 21.6365 17.1607 22.1153 17.4077 22.735C17.6547 23.3547 17.7479 24.0848 17.6872 24.9255H16.1337V24.3535C16.1294 23.5908 15.9951 23.034 15.7307 22.683C15.4664 22.332 15.0504 22.1565 14.4827 22.1565C13.8414 22.1565 13.3647 22.3558 13.0527 22.7545C12.7407 23.1488 12.5847 23.7273 12.5847 24.49C12.5847 25.2007 12.7407 25.751 13.0527 26.141C13.3647 26.531 13.8197 26.726 14.4177 26.726C14.8034 26.726 15.1349 26.6415 15.4122 26.4725C15.6939 26.2992 15.9106 26.05 16.0622 25.725L17.6092 26.193C17.3406 26.8257 16.9246 27.3175 16.3612 27.6685C15.8022 28.0195 15.1847 28.195 14.5087 28.195ZM12.0907 24.9255V23.7425H16.9202V24.9255H12.0907ZM19.1245 28V20.98H20.691V23.749H23.8435V20.98H25.41V28H23.8435V25.218H20.691V28H19.1245ZM33.354 28.195C32.795 28.195 32.2901 28.0802 31.8395 27.8505C31.3931 27.6165 31.0205 27.2828 30.7215 26.8495C30.4268 26.4118 30.234 25.8853 30.143 25.27H28.778V28H27.2115V20.98H28.778V23.71H30.143C30.234 23.086 30.429 22.5573 30.728 22.124C31.027 21.6863 31.404 21.3548 31.859 21.1295C32.314 20.8998 32.8231 20.785 33.3865 20.785C34.0798 20.785 34.6865 20.9453 35.2065 21.266C35.7265 21.5823 36.1316 22.0178 36.422 22.5725C36.7123 23.1272 36.8575 23.762 36.8575 24.477C36.8575 25.2093 36.7101 25.855 36.4155 26.414C36.1208 26.973 35.7113 27.4107 35.187 27.727C34.6626 28.039 34.0516 28.195 33.354 28.195ZM33.341 26.726C33.965 26.726 34.4308 26.518 34.7385 26.102C35.0461 25.686 35.2 25.1487 35.2 24.49C35.2 23.801 35.044 23.2572 34.732 22.8585C34.4243 22.4555 33.9606 22.254 33.341 22.254C32.7256 22.254 32.2685 22.4577 31.9695 22.865C31.6705 23.268 31.521 23.8053 31.521 24.477C31.521 25.166 31.6748 25.7142 31.9825 26.1215C32.2901 26.5245 32.743 26.726 33.341 26.726Z" fill="black"/>
<line x1="2.98975" y1="2" x2="34" y2="2" stroke="black" stroke-width="4" stroke-linecap="round"/>
<line x1="2.98975" y1="12" x2="34" y2="12" stroke="black" stroke-width="4" stroke-linecap="round"/>
</svg>
